# xmcd CD database file
#
# Track frame offsets:
#	210
#	19699
#	47974
#	61190
#	78272
#	106933
#	119445
#	139486
#	163390
#	182396
#	196866
#	227002
#
# Disc length: 3292 seconds
#
# Revision: 1
# Processed by: cddbd v1.4PL0 Copyright (c) Steve Scherf et al.
# Submitted via: CDex 1.50beta10
#
DISCID=9d0cda0c
DTITLE=Easy Baby - If It Ait't One Thing, It's Another - Chicago Blues Session - Vol. 57
DYEAR=2002
DGENRE=Blues
TTITLE0=Lovey Dovey
TTITLE1=Call Me Easy Baby
TTITLE2=Let Me Explain
TTITLE3=Baby, You Fine
TTITLE4=Sittin' Here Worriyin'
TTITLE5=Good Morning, Little Schoolgirl
TTITLE6=Beggin' Woman
TTITLE7=Good Morning, Mr. Blues
TTITLE8=Howlin' For My Darlin
TTITLE9=Scatterbrain
TTITLE10=Ah Pretty Women
TTITLE11=If It Ain't One Thing, It's Another
EXTD=YEAR: 2002
EXTT0=
EXTT1=
EXTT2=
EXTT3=
EXTT4=
EXTT5=
EXTT6=
EXTT7=
EXTT8=
EXTT9=
EXTT10=
EXTT11=
PLAYORDER=
